# xmcd
#
# Track frame offsets:
#	182
#	15152
#	29787
#	46335
#	60017
#	73692
#	89195
#	101182
#	114665
#	129957
#	146990
#	161662
#
# Disc length: 2363 seconds
#
# Revision: 1
# Processed by: cddbd v1.5.2PL0 Copyright (c) Steve Scherf et al.
# Submitted via: audiograbber 1.83.01
#
DISCID=a809390c
DTITLE=Tom Maxwell - New Wave Of The Bush
DYEAR=2000
DGENRE=Country
TTITLE0=Itchy Feet
TTITLE1=Clover On The Cooper
TTITLE2=Life On The Dole
TTITLE3=Mildura Wine
TTITLE4=Collie Jack
TTITLE5=Macquarie River
TTITLE6=Pilliga Princess
TTITLE7=Dinki Di Bushman's Kid
TTITLE8=R M Williams Boots
TTITLE9=Comin' Down Is Easy
TTITLE10=We'll Never Go Droving Again
TTITLE11=When The Nardoo Turns To Brown
EXTD=
EXTT0=
EXTT1=
EXTT2=
EXTT3=
EXTT4=
EXTT5=
EXTT6=
EXTT7=
EXTT8=
EXTT9=
EXTT10=
EXTT11=
PLAYORDER=
